# Blender v2.80 (sub 39) OBJ File: ''
# www.blender.org
mtllib floor_8x8.mtl
o Plane
v -10.000000 0.000000 10.000000
v 10.000000 0.000000 10.000000
v -10.000000 0.000000 -10.000000
v 10.000000 0.000000 -10.000000
v -10.000000 0.000000 -7.500000
v -10.000000 0.000000 -5.000000
v -10.000000 0.000000 -2.500000
v -10.000000 0.000000 0.000000
v -10.000000 0.000000 2.500000
v -10.000000 0.000000 5.000000
v -10.000000 0.000000 7.500000
v 10.000000 0.000000 7.500000
v 10.000000 0.000000 5.000000
v 10.000000 0.000000 2.500000
v 10.000000 0.000000 0.000000
v 10.000000 0.000000 -2.500000
v 10.000000 0.000000 -5.000000
v 10.000000 0.000000 -7.500000
v -7.500000 0.000000 10.000000
v -5.000000 0.000000 10.000000
v -2.500000 0.000000 10.000000
v 0.000000 0.000000 10.000000
v 2.500000 0.000000 10.000000
v 5.000000 0.000000 10.000000
v 7.500000 0.000000 10.000000
v 7.500000 0.000000 -10.000000
v 5.000000 0.000000 -10.000000
v 2.500000 0.000000 -10.000000
v 0.000000 0.000000 -10.000000
v -2.500000 0.000000 -10.000000
v -5.000000 0.000000 -10.000000
v -7.500000 0.000000 -10.000000
v 7.500000 0.000000 7.500000
v 5.000000 0.000000 7.500000
v 2.500000 0.000000 7.500000
v 0.000000 0.000000 7.500000
v -2.500000 0.000000 7.500000
v -5.000000 0.000000 7.500000
v -7.500000 0.000000 7.500000
v 7.500000 0.000000 5.000000
v 5.000000 0.000000 5.000000
v 2.500000 0.000000 5.000000
v 0.000000 0.000000 5.000000
v -2.500000 0.000000 5.000000
v -5.000000 0.000000 5.000000
v -7.500000 0.000000 5.000000
v 7.500000 0.000000 2.500000
v 5.000000 0.000000 2.500000
v 2.500000 0.000000 2.500000
v 0.000000 0.000000 2.500000
v -2.500000 0.000000 2.500000
v -5.000000 0.000000 2.500000
v -7.500000 0.000000 2.500000
v 7.500000 0.000000 0.000000
v 5.000000 0.000000 0.000000
v 2.500000 0.000000 0.000000
v 0.000000 0.000000 0.000000
v -2.500000 0.000000 0.000000
v -5.000000 0.000000 0.000000
v -7.500000 0.000000 0.000000
v 7.500000 0.000000 -2.500000
v 5.000000 0.000000 -2.500000
v 2.500000 0.000000 -2.500000
v 0.000000 0.000000 -2.500000
v -2.500000 0.000000 -2.500000
v -5.000000 0.000000 -2.500000
v -7.500000 0.000000 -2.500000
v 7.500000 0.000000 -5.000000
v 5.000000 0.000000 -5.000000
v 2.500000 0.000000 -5.000000
v 0.000000 0.000000 -5.000000
v -2.500000 0.000000 -5.000000
v -5.000000 0.000000 -5.000000
v -7.500000 0.000000 -5.000000
v 7.500000 0.000000 -7.500000
v 5.000000 0.000000 -7.500000
v 2.500000 0.000000 -7.500000
v 0.000000 0.000000 -7.500000
v -2.500000 0.000000 -7.500000
v -5.000000 0.000000 -7.500000
v -7.500000 0.000000 -7.500000
vt 4.250000 4.250000
vt 5.500000 4.250000
vt 5.500000 5.500000
vt 4.250000 5.500000
vt 4.250000 -4.500000
vt 5.500000 -4.500000
vt 5.500000 -3.250000
vt 4.250000 -3.250000
vt 5.500000 -2.000000
vt 4.250000 -2.000000
vt 5.500000 -0.750000
vt 4.250000 -0.750000
vt 5.500000 0.500000
vt 4.250000 0.500000
vt 5.500000 1.750000
vt 4.250000 1.750000
vt 5.500000 3.000000
vt 4.250000 3.000000
vt -4.500000 3.000000
vt -3.250000 3.000000
vt -3.250000 4.250000
vt -4.500000 4.250000
vt -2.000000 3.000000
vt -2.000000 4.250000
vt -0.750000 3.000000
vt -0.750000 4.250000
vt 0.500000 3.000000
vt 0.500000 4.250000
vt 1.750000 3.000000
vt 1.750000 4.250000
vt 3.000000 3.000000
vt 3.000000 4.250000
vt -4.500000 1.750000
vt -3.250000 1.750000
vt -2.000000 1.750000
vt -0.750000 1.750000
vt 0.500000 1.750000
vt 1.750000 1.750000
vt 3.000000 1.750000
vt -4.500000 0.500000
vt -3.250000 0.500000
vt -2.000000 0.500000
vt -0.750000 0.500000
vt 0.500000 0.500000
vt 1.750000 0.500000
vt 3.000000 0.500000
vt -4.500000 -0.750000
vt -3.250000 -0.750000
vt -2.000000 -0.750000
vt -0.750000 -0.750000
vt 0.500000 -0.750000
vt 1.750000 -0.750000
vt 3.000000 -0.750000
vt -4.500000 -2.000000
vt -3.250000 -2.000000
vt -2.000000 -2.000000
vt -0.750000 -2.000000
vt 0.500000 -2.000000
vt 1.750000 -2.000000
vt 3.000000 -2.000000
vt -4.500000 -3.250000
vt -3.250000 -3.250000
vt -2.000000 -3.250000
vt -0.750000 -3.250000
vt 0.500000 -3.250000
vt 1.750000 -3.250000
vt 3.000000 -3.250000
vt -4.500000 -4.500000
vt -3.250000 -4.500000
vt -2.000000 -4.500000
vt -0.750000 -4.500000
vt 0.500000 -4.500000
vt 1.750000 -4.500000
vt 3.000000 -4.500000
vt -3.250000 5.500000
vt -4.500000 5.500000
vt -2.000000 5.500000
vt -0.750000 5.500000
vt 0.500000 5.500000
vt 1.750000 5.500000
vt 3.000000 5.500000
vn 0.0000 1.0000 0.0000
usemtl None
s off
f 75/1/1 18/2/1 4/3/1 26/4/1
f 25/5/1 2/6/1 12/7/1 33/8/1
f 33/8/1 12/7/1 13/9/1 40/10/1
f 40/10/1 13/9/1 14/11/1 47/12/1
f 47/12/1 14/11/1 15/13/1 54/14/1
f 54/14/1 15/13/1 16/15/1 61/16/1
f 61/16/1 16/15/1 17/17/1 68/18/1
f 68/18/1 17/17/1 18/2/1 75/1/1
f 6/19/1 74/20/1 81/21/1 5/22/1
f 74/20/1 73/23/1 80/24/1 81/21/1
f 73/23/1 72/25/1 79/26/1 80/24/1
f 72/25/1 71/27/1 78/28/1 79/26/1
f 71/27/1 70/29/1 77/30/1 78/28/1
f 70/29/1 69/31/1 76/32/1 77/30/1
f 69/31/1 68/18/1 75/1/1 76/32/1
f 7/33/1 67/34/1 74/20/1 6/19/1
f 67/34/1 66/35/1 73/23/1 74/20/1
f 66/35/1 65/36/1 72/25/1 73/23/1
f 65/36/1 64/37/1 71/27/1 72/25/1
f 64/37/1 63/38/1 70/29/1 71/27/1
f 63/38/1 62/39/1 69/31/1 70/29/1
f 62/39/1 61/16/1 68/18/1 69/31/1
f 8/40/1 60/41/1 67/34/1 7/33/1
f 60/41/1 59/42/1 66/35/1 67/34/1
f 59/42/1 58/43/1 65/36/1 66/35/1
f 58/43/1 57/44/1 64/37/1 65/36/1
f 57/44/1 56/45/1 63/38/1 64/37/1
f 56/45/1 55/46/1 62/39/1 63/38/1
f 55/46/1 54/14/1 61/16/1 62/39/1
f 9/47/1 53/48/1 60/41/1 8/40/1
f 53/48/1 52/49/1 59/42/1 60/41/1
f 52/49/1 51/50/1 58/43/1 59/42/1
f 51/50/1 50/51/1 57/44/1 58/43/1
f 50/51/1 49/52/1 56/45/1 57/44/1
f 49/52/1 48/53/1 55/46/1 56/45/1
f 48/53/1 47/12/1 54/14/1 55/46/1
f 10/54/1 46/55/1 53/48/1 9/47/1
f 46/55/1 45/56/1 52/49/1 53/48/1
f 45/56/1 44/57/1 51/50/1 52/49/1
f 44/57/1 43/58/1 50/51/1 51/50/1
f 43/58/1 42/59/1 49/52/1 50/51/1
f 42/59/1 41/60/1 48/53/1 49/52/1
f 41/60/1 40/10/1 47/12/1 48/53/1
f 11/61/1 39/62/1 46/55/1 10/54/1
f 39/62/1 38/63/1 45/56/1 46/55/1
f 38/63/1 37/64/1 44/57/1 45/56/1
f 37/64/1 36/65/1 43/58/1 44/57/1
f 36/65/1 35/66/1 42/59/1 43/58/1
f 35/66/1 34/67/1 41/60/1 42/59/1
f 34/67/1 33/8/1 40/10/1 41/60/1
f 1/68/1 19/69/1 39/62/1 11/61/1
f 19/69/1 20/70/1 38/63/1 39/62/1
f 20/70/1 21/71/1 37/64/1 38/63/1
f 21/71/1 22/72/1 36/65/1 37/64/1
f 22/72/1 23/73/1 35/66/1 36/65/1
f 23/73/1 24/74/1 34/67/1 35/66/1
f 24/74/1 25/5/1 33/8/1 34/67/1
f 5/22/1 81/21/1 32/75/1 3/76/1
f 81/21/1 80/24/1 31/77/1 32/75/1
f 80/24/1 79/26/1 30/78/1 31/77/1
f 79/26/1 78/28/1 29/79/1 30/78/1
f 78/28/1 77/30/1 28/80/1 29/79/1
f 77/30/1 76/32/1 27/81/1 28/80/1
f 76/32/1 75/1/1 26/4/1 27/81/1
