# Blender v2.80 (sub 39) OBJ File: 'floor.blend'
# www.blender.org
mtllib floor.mtl
o Floor_Cube
v 3.883708 0.097093 -4.000000
v 3.883708 0.100000 -3.883708
v 4.000000 0.097093 -3.883708
v 3.883708 0.098205 -3.991148
v 3.883708 0.099148 -3.965939
v 3.928211 0.097093 -3.991148
v 3.929326 0.098233 -3.980464
v 3.927012 0.099001 -3.960025
v 3.950849 0.098771 -3.950849
v 3.928211 0.099779 -3.883708
v 3.965939 0.099148 -3.883708
v 3.883708 0.099779 -3.928211
v 3.929326 0.099512 -3.929326
v 3.960025 0.099001 -3.927012
v 3.991148 0.097093 -3.928211
v 3.965939 0.097093 -3.965939
v 3.991148 0.098205 -3.883708
v 3.980464 0.098233 -3.929326
v 3.960025 0.098175 -3.960025
v 3.883708 -0.100000 -3.883708
v 3.883708 -0.097093 -4.000000
v 4.000000 -0.097093 -3.883708
v 3.883708 -0.099779 -3.928211
v 3.883708 -0.099148 -3.965939
v 3.928211 -0.099779 -3.883708
v 3.929326 -0.099512 -3.929326
v 3.927012 -0.099001 -3.960025
v 3.950849 -0.098771 -3.950849
v 3.928211 -0.097093 -3.991148
v 3.965939 -0.097093 -3.965939
v 3.883708 -0.098205 -3.991148
v 3.929326 -0.098233 -3.980464
v 3.960025 -0.098175 -3.960025
v 3.991148 -0.098205 -3.883708
v 3.965939 -0.099148 -3.883708
v 3.991148 -0.097093 -3.928211
v 3.980464 -0.098233 -3.929326
v 3.960025 -0.099001 -3.927012
v 4.000000 0.097093 3.883708
v 3.883708 0.100000 3.883708
v 3.883708 0.097093 4.000000
v 3.991148 0.098205 3.883708
v 3.965939 0.099148 3.883708
v 3.991148 0.097093 3.928211
v 3.980464 0.098233 3.929326
v 3.960025 0.099001 3.927012
v 3.950849 0.098771 3.950849
v 3.883708 0.099779 3.928211
v 3.883708 0.099148 3.965939
v 3.928211 0.099779 3.883708
v 3.929326 0.099512 3.929326
v 3.927012 0.099001 3.960025
v 3.928211 0.097093 3.991148
v 3.965939 0.097093 3.965939
v 3.883708 0.098205 3.991148
v 3.929326 0.098233 3.980464
v 3.960025 0.098175 3.960025
v 4.000000 -0.097093 3.883708
v 3.883708 -0.097093 4.000000
v 3.883708 -0.100000 3.883708
v 3.991148 -0.097093 3.928211
v 3.965939 -0.097093 3.965939
v 3.991148 -0.098205 3.883708
v 3.980464 -0.098233 3.929326
v 3.960025 -0.098175 3.960025
v 3.950849 -0.098771 3.950849
v 3.883708 -0.098205 3.991148
v 3.883708 -0.099148 3.965939
v 3.928211 -0.097093 3.991148
v 3.929326 -0.098233 3.980464
v 3.927012 -0.099001 3.960025
v 3.928211 -0.099779 3.883708
v 3.965939 -0.099148 3.883708
v 3.883708 -0.099779 3.928211
v 3.929326 -0.099512 3.929326
v 3.960025 -0.099001 3.927012
v -3.883708 0.097093 -4.000000
v -4.000000 0.097093 -3.883708
v -3.883708 0.100000 -3.883708
v -3.928211 0.097093 -3.991148
v -3.965939 0.097093 -3.965939
v -3.883708 0.098205 -3.991148
v -3.929326 0.098233 -3.980464
v -3.960025 0.098175 -3.960025
v -3.950849 0.098771 -3.950849
v -3.991148 0.098205 -3.883708
v -3.965939 0.099148 -3.883708
v -3.991148 0.097093 -3.928211
v -3.980464 0.098233 -3.929326
v -3.960025 0.099001 -3.927012
v -3.883708 0.099779 -3.928211
v -3.883708 0.099148 -3.965939
v -3.928211 0.099779 -3.883708
v -3.929326 0.099512 -3.929326
v -3.927012 0.099001 -3.960025
v -4.000000 -0.097093 -3.883708
v -3.883708 -0.097093 -4.000000
v -3.883708 -0.100000 -3.883708
v -3.991148 -0.097093 -3.928211
v -3.965939 -0.097093 -3.965939
v -3.991148 -0.098205 -3.883708
v -3.980464 -0.098233 -3.929326
v -3.960025 -0.098175 -3.960025
v -3.950849 -0.098771 -3.950849
v -3.883708 -0.098205 -3.991148
v -3.883708 -0.099148 -3.965939
v -3.928211 -0.097093 -3.991148
v -3.929326 -0.098233 -3.980464
v -3.927012 -0.099001 -3.960025
v -3.928211 -0.099779 -3.883708
v -3.965939 -0.099148 -3.883708
v -3.883708 -0.099779 -3.928211
v -3.929326 -0.099512 -3.929326
v -3.960025 -0.099001 -3.927012
v -4.000000 0.097093 3.883708
v -3.883708 0.097093 4.000000
v -3.883708 0.100000 3.883708
v -3.991148 0.097093 3.928211
v -3.965939 0.097093 3.965939
v -3.991148 0.098205 3.883708
v -3.980464 0.098233 3.929326
v -3.960025 0.098175 3.960025
v -3.950849 0.098771 3.950849
v -3.883708 0.098205 3.991148
v -3.883708 0.099148 3.965939
v -3.928211 0.097093 3.991148
v -3.929326 0.098233 3.980464
v -3.927012 0.099001 3.960025
v -3.928211 0.099779 3.883708
v -3.965939 0.099148 3.883708
v -3.883708 0.099779 3.928211
v -3.929326 0.099512 3.929326
v -3.960025 0.099001 3.927012
v -3.883708 -0.100000 3.883708
v -3.883708 -0.097093 4.000000
v -4.000000 -0.097093 3.883708
v -3.883708 -0.099779 3.928211
v -3.883708 -0.099148 3.965939
v -3.928211 -0.099779 3.883708
v -3.929326 -0.099512 3.929326
v -3.927012 -0.099001 3.960025
v -3.950849 -0.098771 3.950849
v -3.928211 -0.097093 3.991148
v -3.965939 -0.097093 3.965939
v -3.883708 -0.098205 3.991148
v -3.929326 -0.098233 3.980464
v -3.960025 -0.098175 3.960025
v -3.991148 -0.098205 3.883708
v -3.965939 -0.099148 3.883708
v -3.991148 -0.097093 3.928211
v -3.980464 -0.098233 3.929326
v -3.960025 -0.099001 3.927012
v 4.000000 0.085368 -3.883708
v 3.991148 0.085368 -3.928211
v 3.965939 0.085368 -3.965939
v 3.928211 0.085368 -3.991148
v 3.883708 0.085368 -4.000000
v -3.883708 0.085368 4.000000
v -3.928211 0.085368 3.991148
v -3.965939 0.085368 3.965939
v -3.991148 0.085368 3.928211
v -4.000000 0.085368 3.883708
v 3.883708 0.085368 4.000000
v 3.928211 0.085368 3.991148
v 3.965939 0.085368 3.965939
v 3.991148 0.085368 3.928211
v 4.000000 0.085368 3.883708
v -3.883708 0.085368 -4.000000
v -3.928211 0.085368 -3.991148
v -3.965939 0.085368 -3.965939
v -3.991148 0.085368 -3.928211
v -4.000000 0.085368 -3.883708
vt 0.538374 0.027208
vt 0.972991 0.026966
vt 0.973034 0.461584
vt 0.538417 0.461826
vt 0.011218 0.018954
vt 0.011848 0.018955
vt 0.011856 0.492486
vt 0.011219 0.492488
vt 0.492460 0.011217
vt 0.492459 0.011848
vt 0.018936 0.011870
vt 0.018935 0.011233
vt 0.492671 0.492659
vt 0.018752 0.492678
vt 0.018737 0.018759
vt 0.492656 0.018740
vt 0.500191 0.492464
vt 0.499560 0.492463
vt 0.499552 0.018932
vt 0.500189 0.018931
vt 0.492472 0.499548
vt 0.492518 0.499088
vt 0.495232 0.498785
vt 0.495025 0.499354
vt 0.492609 0.497640
vt 0.495313 0.497502
vt 0.497571 0.498031
vt 0.497836 0.498758
vt 0.497051 0.497041
vt 0.495384 0.492660
vt 0.495532 0.495522
vt 0.492670 0.495373
vt 0.497650 0.492599
vt 0.497512 0.495303
vt 0.499363 0.495014
vt 0.498794 0.495222
vt 0.499100 0.492508
vt 0.498767 0.497824
vt 0.498040 0.497560
vt 0.972456 0.018184
vt 0.982481 0.017381
vt 0.981782 0.027421
vt 0.971366 0.009842
vt 0.981925 0.010312
vt 0.989557 0.017861
vt 0.990141 0.028425
vt 0.987400 0.012408
vt 0.970539 0.000100
vt 0.982265 0.002708
vt 0.982484 0.005351
vt 0.970621 0.002920
vt 0.991025 0.008929
vt 0.989585 0.010294
vt 0.999900 0.029141
vt 0.997076 0.029083
vt 0.994514 0.017246
vt 0.997159 0.017436
vt 0.989490 0.010199
vt 0.990839 0.008743
vt 0.499091 0.018888
vt 0.498786 0.016173
vt 0.499356 0.016380
vt 0.497642 0.018799
vt 0.497502 0.016093
vt 0.498029 0.013834
vt 0.498757 0.013568
vt 0.497038 0.014355
vt 0.492656 0.016025
vt 0.495520 0.015876
vt 0.495372 0.018740
vt 0.492595 0.013759
vt 0.495300 0.013895
vt 0.495010 0.012045
vt 0.495218 0.012613
vt 0.492504 0.012308
vt 0.497821 0.012640
vt 0.497556 0.013366
vt 0.999900 0.459137
vt 0.997289 0.470859
vt 0.994647 0.471078
vt 0.997081 0.459218
vt 0.991069 0.479617
vt 0.989704 0.478177
vt 0.989687 0.470518
vt 0.990159 0.459960
vt 0.987591 0.475992
vt 0.970864 0.488493
vt 0.970921 0.485669
vt 0.982755 0.483105
vt 0.982566 0.485749
vt 0.971577 0.478735
vt 0.982140 0.478149
vt 0.989800 0.478081
vt 0.991255 0.479430
vt 0.981817 0.461049
vt 0.982619 0.471074
vt 0.972579 0.470376
vt 0.018949 0.499570
vt 0.016398 0.499374
vt 0.016190 0.498805
vt 0.018904 0.499110
vt 0.013587 0.498778
vt 0.013852 0.498052
vt 0.016108 0.497523
vt 0.018813 0.497659
vt 0.014370 0.497063
vt 0.012317 0.492530
vt 0.012623 0.495245
vt 0.012053 0.495038
vt 0.013766 0.492619
vt 0.013906 0.495325
vt 0.013379 0.497584
vt 0.012651 0.497850
vt 0.018752 0.495393
vt 0.015889 0.495542
vt 0.016036 0.492679
vt 0.511508 0.029655
vt 0.514119 0.017932
vt 0.516761 0.017713
vt 0.514327 0.029573
vt 0.520339 0.009175
vt 0.521704 0.010615
vt 0.521722 0.018273
vt 0.521250 0.028831
vt 0.523818 0.012800
vt 0.540544 0.000299
vt 0.540487 0.003122
vt 0.528653 0.005687
vt 0.528842 0.003042
vt 0.539831 0.010057
vt 0.529268 0.010643
vt 0.521609 0.010710
vt 0.520153 0.009362
vt 0.529592 0.027742
vt 0.528790 0.017718
vt 0.538829 0.018416
vt 0.012045 0.016404
vt 0.012614 0.016196
vt 0.012308 0.018910
vt 0.012642 0.013594
vt 0.013368 0.013859
vt 0.013896 0.016115
vt 0.013759 0.018819
vt 0.014357 0.014378
vt 0.018890 0.012330
vt 0.016176 0.012633
vt 0.016384 0.012064
vt 0.018799 0.013778
vt 0.016095 0.013916
vt 0.013838 0.013388
vt 0.013572 0.012661
vt 0.016024 0.018759
vt 0.015876 0.015897
vt 0.018738 0.016046
vt 0.538952 0.470608
vt 0.528927 0.471410
vt 0.529626 0.461370
vt 0.540043 0.478949
vt 0.529483 0.478479
vt 0.521852 0.470931
vt 0.521267 0.460367
vt 0.524009 0.476383
vt 0.540870 0.488691
vt 0.529144 0.486083
vt 0.528924 0.483441
vt 0.540787 0.485872
vt 0.520383 0.479863
vt 0.521823 0.478497
vt 0.511508 0.459650
vt 0.514332 0.459708
vt 0.516894 0.471546
vt 0.514249 0.471356
vt 0.521918 0.478592
vt 0.520569 0.480048
vt 0.511308 0.492550
vt 0.511258 0.495398
vt 0.500017 0.495120
vt 0.511180 0.498249
vt 0.499717 0.497938
vt 0.497949 0.499709
vt 0.498260 0.511177
vt 0.495409 0.511254
vt 0.495130 0.500010
vt 0.492559 0.511305
vt 0.492473 0.500186
vt 0.016278 0.011409
vt 0.013459 0.011709
vt 0.011691 0.013481
vt 0.011391 0.016298
vt 0.492545 0.000100
vt 0.495393 0.000150
vt 0.495116 0.011391
vt 0.498243 0.000227
vt 0.497933 0.011690
vt 0.499710 0.013455
vt 0.511180 0.013142
vt 0.511258 0.015994
vt 0.500011 0.016274
vt 0.511308 0.018844
vt 0.018948 0.500201
vt 0.018863 0.511318
vt 0.016015 0.511268
vt 0.016292 0.500028
vt 0.013165 0.511191
vt 0.013475 0.499729
vt 0.011699 0.497963
vt 0.000229 0.498276
vt 0.000151 0.495424
vt 0.011397 0.495144
vt 0.000100 0.492574
vt 0.000150 0.016020
vt 0.000100 0.018869
vt 0.000228 0.013170
vt 0.016000 0.000164
vt 0.013148 0.000242
vt 0.018849 0.000114
vn -0.0026 -1.0000 -0.0026
vn 0.0026 -1.0000 -0.0026
vn 0.0026 -1.0000 0.0026
vn -0.0026 -1.0000 0.0026
vn -0.9952 0.0000 0.0980
vn -0.7622 0.6430 0.0749
vn -0.7622 0.6430 -0.0749
vn -0.9952 0.0000 -0.0980
vn 0.0980 0.0000 0.9952
vn 0.0749 0.6430 0.7622
vn -0.0749 0.6430 0.7622
vn -0.0980 0.0000 0.9952
vn 0.0026 1.0000 -0.0026
vn -0.0026 1.0000 -0.0026
vn -0.0026 1.0000 0.0026
vn 0.0026 1.0000 0.0026
vn 0.9952 0.0000 -0.0980
vn 0.7622 0.6430 -0.0749
vn 0.7622 0.6430 0.0749
vn 0.9952 0.0000 0.0980
vn 0.0749 0.6430 -0.7622
vn 0.0089 0.9966 -0.0817
vn 0.0384 0.9961 -0.0791
vn 0.2954 0.6245 -0.7230
vn 0.0035 0.9996 -0.0274
vn 0.0139 0.9995 -0.0275
vn 0.0658 0.9956 -0.0658
vn 0.5543 0.6209 -0.5543
vn 0.0257 0.9993 -0.0257
vn 0.0109 0.9999 -0.0027
vn 0.0114 0.9998 -0.0114
vn 0.0027 0.9999 -0.0109
vn 0.0274 0.9996 -0.0035
vn 0.0275 0.9995 -0.0139
vn 0.7230 0.6245 -0.2954
vn 0.0791 0.9961 -0.0384
vn 0.0817 0.9966 -0.0089
vn 0.0027 -0.9999 -0.0109
vn 0.0114 -0.9998 -0.0114
vn 0.0109 -0.9999 -0.0027
vn 0.0035 -0.9996 -0.0274
vn 0.0139 -0.9995 -0.0275
vn 0.0275 -0.9995 -0.0139
vn 0.0274 -0.9996 -0.0035
vn 0.0257 -0.9993 -0.0257
vn 0.0749 -0.6430 -0.7622
vn 0.2954 -0.6245 -0.7230
vn 0.0384 -0.9961 -0.0791
vn 0.0089 -0.9966 -0.0817
vn 0.5543 -0.6209 -0.5543
vn 0.0658 -0.9956 -0.0658
vn 0.7622 -0.6430 -0.0749
vn 0.0817 -0.9966 -0.0089
vn 0.0791 -0.9961 -0.0384
vn 0.7230 -0.6245 -0.2954
vn 0.0817 0.9966 0.0089
vn 0.0791 0.9961 0.0384
vn 0.7230 0.6245 0.2954
vn 0.0274 0.9996 0.0035
vn 0.0275 0.9995 0.0139
vn 0.0658 0.9956 0.0658
vn 0.5543 0.6209 0.5543
vn 0.0257 0.9993 0.0257
vn 0.0027 0.9999 0.0109
vn 0.0114 0.9998 0.0114
vn 0.0109 0.9999 0.0027
vn 0.0035 0.9996 0.0274
vn 0.0139 0.9995 0.0275
vn 0.2954 0.6245 0.7230
vn 0.0384 0.9961 0.0791
vn 0.0089 0.9966 0.0817
vn 0.7622 -0.6430 0.0749
vn 0.7230 -0.6245 0.2954
vn 0.0791 -0.9961 0.0384
vn 0.0817 -0.9966 0.0089
vn 0.5543 -0.6209 0.5543
vn 0.0658 -0.9956 0.0658
vn 0.0275 -0.9995 0.0139
vn 0.0274 -0.9996 0.0035
vn 0.0257 -0.9993 0.0257
vn 0.0749 -0.6430 0.7622
vn 0.0089 -0.9966 0.0817
vn 0.0384 -0.9961 0.0791
vn 0.2954 -0.6245 0.7230
vn 0.0035 -0.9996 0.0274
vn 0.0139 -0.9995 0.0275
vn 0.0109 -0.9999 0.0027
vn 0.0114 -0.9998 0.0114
vn 0.0027 -0.9999 0.0109
vn -0.0749 0.6430 -0.7622
vn -0.2954 0.6245 -0.7230
vn -0.0384 0.9961 -0.0791
vn -0.0089 0.9966 -0.0817
vn -0.5543 0.6209 -0.5543
vn -0.0658 0.9956 -0.0658
vn -0.0139 0.9995 -0.0275
vn -0.0035 0.9996 -0.0274
vn -0.0257 0.9993 -0.0257
vn -0.0817 0.9966 -0.0089
vn -0.0791 0.9961 -0.0384
vn -0.7230 0.6245 -0.2954
vn -0.0274 0.9996 -0.0035
vn -0.0275 0.9995 -0.0139
vn -0.0027 0.9999 -0.0109
vn -0.0114 0.9998 -0.0114
vn -0.0109 0.9999 -0.0027
vn -0.7622 -0.6430 -0.0749
vn -0.7230 -0.6245 -0.2954
vn -0.0791 -0.9961 -0.0384
vn -0.0817 -0.9966 -0.0089
vn -0.5543 -0.6209 -0.5543
vn -0.0658 -0.9956 -0.0658
vn -0.0275 -0.9995 -0.0139
vn -0.0274 -0.9996 -0.0035
vn -0.0257 -0.9993 -0.0257
vn -0.0749 -0.6430 -0.7622
vn -0.0089 -0.9966 -0.0817
vn -0.0384 -0.9961 -0.0791
vn -0.2954 -0.6245 -0.7230
vn -0.0035 -0.9996 -0.0274
vn -0.0139 -0.9995 -0.0275
vn -0.0109 -0.9999 -0.0027
vn -0.0114 -0.9998 -0.0114
vn -0.0027 -0.9999 -0.0109
vn -0.7230 0.6245 0.2954
vn -0.0791 0.9961 0.0384
vn -0.0817 0.9966 0.0089
vn -0.5543 0.6209 0.5543
vn -0.0658 0.9956 0.0658
vn -0.0275 0.9995 0.0139
vn -0.0274 0.9996 0.0035
vn -0.0257 0.9993 0.0257
vn -0.0089 0.9966 0.0817
vn -0.0384 0.9961 0.0791
vn -0.2954 0.6245 0.7230
vn -0.0035 0.9996 0.0274
vn -0.0139 0.9995 0.0275
vn -0.0109 0.9999 0.0027
vn -0.0114 0.9998 0.0114
vn -0.0027 0.9999 0.0109
vn -0.0027 -0.9999 0.0109
vn -0.0114 -0.9998 0.0114
vn -0.0109 -0.9999 0.0027
vn -0.0035 -0.9996 0.0274
vn -0.0139 -0.9995 0.0275
vn -0.0275 -0.9995 0.0139
vn -0.0274 -0.9996 0.0035
vn -0.0257 -0.9993 0.0257
vn -0.0749 -0.6430 0.7622
vn -0.2954 -0.6245 0.7230
vn -0.0384 -0.9961 0.0791
vn -0.0089 -0.9966 0.0817
vn -0.5543 -0.6209 0.5543
vn -0.0658 -0.9956 0.0658
vn -0.7622 -0.6430 0.0749
vn -0.0817 -0.9966 0.0089
vn -0.0791 -0.9961 0.0384
vn -0.7230 -0.6245 0.2954
vn 0.9239 0.0000 -0.3827
vn 0.7071 0.0000 -0.7071
vn 0.3827 0.0000 -0.9239
vn 0.0980 0.0000 -0.9952
vn -0.3827 0.0000 0.9239
vn -0.7071 0.0000 0.7071
vn -0.9239 0.0000 0.3827
vn 0.3827 0.0000 0.9239
vn 0.7071 0.0000 0.7071
vn 0.9239 0.0000 0.3827
vn -0.0980 0.0000 -0.9952
vn -0.3827 0.0000 -0.9239
vn -0.7071 0.0000 -0.7071
vn -0.9239 0.0000 -0.3827
usemtl Material
s 1
f 98/1/1 20/2/2 60/3/3 134/4/4
f 162/5/5 115/6/6 78/7/7 172/8/8
f 163/9/9 41/10/10 116/11/11 158/12/12
f 2/13/13 79/14/14 117/15/15 40/16/16
f 153/17/17 3/18/18 39/19/19 167/20/20
f 1/21/21 4/22/22 7/23/23 6/24/24
f 4/22/22 5/25/25 8/26/26 7/23/23
f 6/24/24 7/23/23 19/27/27 16/28/28
f 7/23/23 8/26/26 9/29/29 19/27/27
f 2/13/13 10/30/30 13/31/31 12/32/32
f 10/30/30 11/33/33 14/34/34 13/31/31
f 12/32/32 13/31/31 8/26/26 5/25/25
f 13/31/31 14/34/34 9/29/29 8/26/26
f 3/18/18 15/35/35 18/36/36 17/37/37
f 15/35/35 16/38/28 19/39/27 18/36/36
f 17/37/37 18/36/36 14/34/34 11/33/33
f 18/36/36 19/39/27 9/29/29 14/34/34
f 20/2/2 23/40/38 26/41/39 25/42/40
f 23/40/38 24/43/41 27/44/42 26/41/39
f 25/42/40 26/41/39 38/45/43 35/46/44
f 26/41/39 27/44/42 28/47/45 38/45/43
f 21/48/46 29/49/47 32/50/48 31/51/49
f 29/49/47 30/52/50 33/53/51 32/50/48
f 31/51/49 32/50/48 27/44/42 24/43/41
f 32/50/48 33/53/51 28/47/45 27/44/42
f 22/54/52 34/55/53 37/56/54 36/57/55
f 34/55/53 35/46/44 38/45/43 37/56/54
f 36/57/55 37/56/54 33/58/51 30/59/50
f 37/56/54 38/45/43 28/47/45 33/58/51
f 39/19/19 42/60/56 45/61/57 44/62/58
f 42/60/56 43/63/59 46/64/60 45/61/57
f 44/62/58 45/61/57 57/65/61 54/66/62
f 45/61/57 46/64/60 47/67/63 57/65/61
f 40/16/16 48/68/64 51/69/65 50/70/66
f 48/68/64 49/71/67 52/72/68 51/69/65
f 50/70/66 51/69/65 46/64/60 43/63/59
f 51/69/65 52/72/68 47/67/63 46/64/60
f 41/10/10 53/73/69 56/74/70 55/75/71
f 53/73/69 54/76/62 57/77/61 56/74/70
f 55/75/71 56/74/70 52/72/68 49/71/67
f 56/74/70 57/77/61 47/67/63 52/72/68
f 58/78/72 61/79/73 64/80/74 63/81/75
f 61/79/73 62/82/76 65/83/77 64/80/74
f 63/81/75 64/80/74 76/84/78 73/85/79
f 64/80/74 65/83/77 66/86/80 76/84/78
f 59/87/81 67/88/82 70/89/83 69/90/84
f 67/88/82 68/91/85 71/92/86 70/89/83
f 69/90/84 70/89/83 65/93/77 62/94/76
f 70/89/83 71/92/86 66/86/80 65/93/77
f 60/3/3 72/95/87 75/96/88 74/97/89
f 72/95/87 73/85/79 76/84/78 75/96/88
f 74/97/89 75/96/88 71/92/86 68/91/85
f 75/96/88 76/84/78 66/86/80 71/92/86
f 77/98/90 80/99/91 83/100/92 82/101/93
f 80/99/91 81/102/94 84/103/95 83/100/92
f 82/101/93 83/100/92 95/104/96 92/105/97
f 83/100/92 84/103/95 85/106/98 95/104/96
f 78/7/7 86/107/99 89/108/100 88/109/101
f 86/107/99 87/110/102 90/111/103 89/108/100
f 88/109/101 89/108/100 84/112/95 81/113/94
f 89/108/100 90/111/103 85/106/98 84/112/95
f 79/14/14 91/114/104 94/115/105 93/116/106
f 91/114/104 92/105/97 95/104/96 94/115/105
f 93/116/106 94/115/105 90/111/103 87/110/102
f 94/115/105 95/104/96 85/106/98 90/111/103
f 96/117/107 99/118/108 102/119/109 101/120/110
f 99/118/108 100/121/111 103/122/112 102/119/109
f 101/120/110 102/119/109 114/123/113 111/124/114
f 102/119/109 103/122/112 104/125/115 114/123/113
f 97/126/116 105/127/117 108/128/118 107/129/119
f 105/127/117 106/130/120 109/131/121 108/128/118
f 107/129/119 108/128/118 103/132/112 100/133/111
f 108/128/118 109/131/121 104/125/115 103/132/112
f 98/1/1 110/134/122 113/135/123 112/136/124
f 110/134/122 111/124/114 114/123/113 113/135/123
f 112/136/124 113/135/123 109/131/121 106/130/120
f 113/135/123 114/123/113 104/125/115 109/131/121
f 115/6/6 118/137/125 121/138/126 120/139/127
f 118/137/125 119/140/128 122/141/129 121/138/126
f 120/139/127 121/138/126 133/142/130 130/143/131
f 121/138/126 122/141/129 123/144/132 133/142/130
f 116/11/11 124/145/133 127/146/134 126/147/135
f 124/145/133 125/148/136 128/149/137 127/146/134
f 126/147/135 127/146/134 122/150/129 119/151/128
f 127/146/134 128/149/137 123/144/132 122/150/129
f 117/15/15 129/152/138 132/153/139 131/154/140
f 129/152/138 130/143/131 133/142/130 132/153/139
f 131/154/140 132/153/139 128/149/137 125/148/136
f 132/153/139 133/142/130 123/144/132 128/149/137
f 134/4/4 137/155/141 140/156/142 139/157/143
f 137/155/141 138/158/144 141/159/145 140/156/142
f 139/157/143 140/156/142 152/160/146 149/161/147
f 140/156/142 141/159/145 142/162/148 152/160/146
f 135/163/149 143/164/150 146/165/151 145/166/152
f 143/164/150 144/167/153 147/168/154 146/165/151
f 145/166/152 146/165/151 141/159/145 138/158/144
f 146/165/151 147/168/154 142/162/148 141/159/145
f 136/169/155 148/170/156 151/171/157 150/172/158
f 148/170/156 149/161/147 152/160/146 151/171/157
f 150/172/158 151/171/157 147/173/154 144/174/153
f 151/171/157 152/160/146 142/162/148 147/173/154
f 98/1/1 134/4/4 139/157/143 110/134/122
f 110/134/122 139/157/143 149/161/147 111/124/114
f 111/124/114 149/161/147 148/170/156 101/120/110
f 101/120/110 148/170/156 136/169/155 96/117/107
f 20/2/2 98/1/1 112/136/124 23/40/38
f 23/40/38 112/136/124 106/130/120 24/43/41
f 24/43/41 106/130/120 105/127/117 31/51/49
f 31/51/49 105/127/117 97/126/116 21/48/46
f 153/17/17 22/175/52 36/176/55 154/177/159
f 154/177/159 36/176/55 30/178/50 155/179/160
f 155/180/160 30/181/50 29/182/47 156/183/161
f 156/183/161 29/182/47 21/184/46 157/185/162
f 158/12/12 116/11/11 126/147/135 159/186/163
f 159/186/163 126/147/135 119/151/128 160/187/164
f 160/188/164 119/140/128 118/137/125 161/189/165
f 161/189/165 118/137/125 115/6/6 162/5/5
f 163/9/9 59/190/81 69/191/84 164/192/166
f 164/192/166 69/191/84 62/193/76 165/194/167
f 165/195/167 62/196/76 61/197/73 166/198/168
f 166/198/168 61/197/73 58/199/72 167/20/20
f 168/200/169 97/201/116 107/202/119 169/203/170
f 169/203/170 107/202/119 100/204/111 170/205/171
f 170/206/171 100/207/111 99/208/108 171/209/172
f 171/209/172 99/208/108 96/210/107 172/8/8
f 40/16/16 117/15/15 131/154/140 48/68/64
f 48/68/64 131/154/140 125/148/136 49/71/67
f 49/71/67 125/148/136 124/145/133 55/75/71
f 55/75/71 124/145/133 116/11/11 41/10/10
f 2/13/13 40/16/16 50/70/66 10/30/30
f 10/30/30 50/70/66 43/63/59 11/33/33
f 11/33/33 43/63/59 42/60/56 17/37/37
f 17/37/37 42/60/56 39/19/19 3/18/18
f 134/4/4 60/3/3 74/97/89 137/155/141
f 137/155/141 74/97/89 68/91/85 138/158/144
f 138/158/144 68/91/85 67/88/82 145/166/152
f 145/166/152 67/88/82 59/87/81 135/163/149
f 117/15/15 79/14/14 93/116/106 129/152/138
f 129/152/138 93/116/106 87/110/102 130/143/131
f 130/143/131 87/110/102 86/107/99 120/139/127
f 120/139/127 86/107/99 78/7/7 115/6/6
f 79/14/14 2/13/13 12/32/32 91/114/104
f 91/114/104 12/32/32 5/25/25 92/105/97
f 92/105/97 5/25/25 4/22/22 82/101/93
f 82/101/93 4/22/22 1/21/21 77/98/90
f 60/3/3 20/2/2 25/42/40 72/95/87
f 72/95/87 25/42/40 35/46/44 73/85/79
f 73/85/79 35/46/44 34/55/53 63/81/75
f 63/81/75 34/55/53 22/54/52 58/78/72
f 168/200/169 77/98/90 1/21/21 157/185/162
f 97/201/116 168/200/169 157/185/162 21/184/46
f 88/109/101 171/209/172 172/8/8 78/7/7
f 81/113/94 170/206/171 171/209/172 88/109/101
f 80/99/91 169/203/170 170/205/171 81/102/94
f 77/98/90 168/200/169 169/203/170 80/99/91
f 44/62/58 166/198/168 167/20/20 39/19/19
f 54/66/62 165/195/167 166/198/168 44/62/58
f 53/73/69 164/192/166 165/194/167 54/76/62
f 41/10/10 163/9/9 164/192/166 53/73/69
f 150/211/158 161/189/165 162/5/5 136/212/155
f 144/213/153 160/188/164 161/189/165 150/211/158
f 143/214/150 159/186/163 160/187/164 144/215/153
f 135/216/149 158/12/12 159/186/163 143/214/150
f 6/24/24 156/183/161 157/185/162 1/21/21
f 16/28/28 155/180/160 156/183/161 6/24/24
f 15/35/35 154/177/159 155/179/160 16/38/28
f 3/18/18 153/17/17 154/177/159 15/35/35
f 22/175/52 153/17/17 167/20/20 58/199/72
f 59/190/81 163/9/9 158/12/12 135/216/149
f 136/212/155 162/5/5 172/8/8 96/210/107
