# Blender v2.80 (sub 39) OBJ File: ''
# www.blender.org
mtllib test.mtl
o Cube
v 1.000000 -1.000000 -1.000000
v 1.000000 -1.000000 1.000000
v -1.000000 1.000000 -1.000000
v -1.000000 -1.000000 -1.000000
v -1.000000 -1.000000 1.000000
vt 0.687500 0.687500
vt 0.000000 1.000000
vt 1.000000 1.000000
vt 1.000000 0.000000
vt 0.000000 0.000000
vn -1.0000 0.0000 0.0000
vn 0.0000 -1.0000 0.0000
vn 0.0000 0.0000 -1.0000
usemtl Material
s off
f 4/1/1 5/2/1 3/3/1
f 4/1/2 1/4/2 5/2/2
f 4/1/3 3/3/3 1/4/3
f 1/4/2 2/5/2 5/2/2
